<?xml version="1.0" encoding="utf-8"?>
<!-- Generator: Adobe Illustrator 16.0.2, SVG Export Plug-In . SVG Version: 6.00 Build 0)  -->
<!DOCTYPE svg PUBLIC "-//W3C//DTD SVG 1.1//EN" "http://www.w3.org/Graphics/SVG/1.1/DTD/svg11.dtd">
<svg version="1.1" id="Layer_1" xmlns="http://www.w3.org/2000/svg" xmlns:xlink="http://www.w3.org/1999/xlink" x="0px" y="0px"
	 width="500px" height="500px" viewBox="-584 1047.474 500 500" enable-background="new -584 1047.474 500 500"
	 xml:space="preserve">
<path stroke="#000000" stroke-width="20" stroke-miterlimit="10" d="M436.394,269.303L250,455.696L63.606,269.303
	c-51.474-51.474-51.474-134.919,0-186.393c51.475-51.475,134.919-51.475,186.394,0c51.474-51.475,134.919-51.475,186.394,0
	C487.87,134.383,487.87,217.829,436.394,269.303z"/>
<image overflow="visible" opacity="0.3" enable-background="new    " width="363" height="363" xlink:href="76981C8E.jpeg"  transform="matrix(1.2856 0 0 1.2856 1076 -35.6675)">
</image>
<path fill="none" stroke="#000000" stroke-miterlimit="10" d="M1160.64,212.19c-11.18-8.55-18.55-21.83-19.108-36.86l4.81,8.29
	c-1.64-6.21-2.51-12.73-2.51-19.45c0-2.15,0.09-4.27,0.271-6.38c1.199-14.56,6.511-27.95,14.771-39.02l0.82,8.4
	c4.96-11.69,14.329-21.05,26.02-25.99c0.08-0.03,0.17-0.07,0.25-0.1l0.84,6.51c7.08-3.99,15.25-6.26,23.95-6.26
	c7.47,0,14.55,1.67,20.89,4.67c-16.85,0.05-32,7.31-42.528,18.86c0.08,0,0.158-0.01,0.238,0c-0.09,0.08-0.158,0.17-0.238,0.25
	c-9.392,10.27-15.11,23.7-15.11,38.72c0,8.44,1.81,16.45,5.06,23.68c0.07,0.18,0.15,0.36,0.24,0.53c2.32,5.03,5.34,9.67,8.94,13.79
	c3.59-0.55,7.27-0.83,11.01-0.83c39.49,0,71.5,31.5,71.5,71.5h-143C1127.75,246.91,1140.86,224.79,1160.64,212.19z"/>
<path fill="none" stroke="#000000" stroke-miterlimit="10" d="M1218.64,561.189c-11.18-8.55-18.55-21.83-19.108-36.859l4.81,8.29
	c-1.64-6.21-2.51-12.729-2.51-19.45c0-2.15,0.09-4.27,0.271-6.38c1.199-14.561,6.511-27.95,14.771-39.021l0.82,8.4
	c4.96-11.689,14.329-21.05,26.02-25.99c0.08-0.028,0.17-0.069,0.25-0.1l0.84,6.51c7.08-3.99,15.25-6.26,23.95-6.26
	c7.47,0,14.55,1.67,20.89,4.67c-16.85,0.05-32,7.311-42.528,18.859c0.08,0,0.158-0.011,0.238,0c-0.09,0.08-0.158,0.17-0.238,0.25
	c-9.392,10.271-15.11,23.7-15.11,38.721c0,8.438,1.81,16.449,5.06,23.68c0.07,0.18,0.15,0.36,0.24,0.53
	c2.32,5.03,5.34,9.67,8.94,13.79c3.59-0.551,7.27-0.83,11.01-0.83c39.49,0,71.5,31.5,71.5,71.5h-143
	C1185.75,595.91,1198.86,573.79,1218.64,561.189z"/>
<image overflow="visible" enable-background="new    " width="451" height="451" xlink:href="76981C92.jpeg"  transform="matrix(0.9978 0 0 0.9978 1569.9727 -14.6665)">
</image>
<path fill="none" stroke="#000000" stroke-miterlimit="10" d="M1119.63,616.66c-6.22,2.899-13.149,4.51-20.46,4.51
	c-10.77,0-20.72-3.5-28.78-9.42c-11.6-8.521-19.29-22.061-19.858-37.42l4.81,8.29c-1.64-6.21-2.51-12.729-2.51-19.45
	c0-2.15,0.09-4.27,0.271-6.38c1.199-14.561,6.511-27.95,14.771-39.021l0.82,8.4c4.96-11.689,14.329-21.05,26.02-25.99
	c0.08-0.028,0.17-0.069,0.25-0.1l0.84,6.51c7.08-3.99,15.25-6.26,23.95-6.26c7.47,0,14.55,1.67,20.89,4.67
	c-16.85,0.05-32,7.311-42.528,18.859c0.08,0,0.158-0.011,0.238,0c-0.09,0.08-0.158,0.17-0.238,0.25
	c-9.392,10.271-15.11,23.7-15.11,38.721c0,8.439,1.81,16.449,5.06,23.68c0.07,0.181,0.15,0.36,0.24,0.53
	C1094.52,600.521,1105.76,611.189,1119.63,616.66z"/>
<path fill="none" stroke="#000000" stroke-miterlimit="10" d="M1907.25,176.5c0,0,37.251-11,35.584-44H1937
	c0,0,2.167-25.833-12.833-46.333c0,0-0.334,4.167-1,5.5c0,0-5.166-19.833-27.666-25.5c0,0,4,6.333,3.333,11
	c0,0-20.333-19.5-58.333,18.5c0,0,57.999-15.667,63.166,39.167c0,0,4.166,26.667-26,19.333"/>
<path fill="none" stroke="#000000" stroke-miterlimit="10" d="M1468.25,651.5c0,0,37.251-11,35.584-44H1498
	c0,0,2.167-25.833-12.833-46.333c0,0-0.334,4.167-1,5.5c0,0-5.166-19.833-27.666-25.5c0,0,4,6.333,3.333,11
	c0,0-20.333-19.5-58.333,18.5c0,0,57.999-15.667,63.166,39.167c0,0,4.166,26.666-26,19.333"/>
<path fill="none" stroke="#000000" stroke-miterlimit="10" d="M1370.5,639.11c9.17-11.062,23.01-18.11,38.5-18.11
	c27.61,0,50,22.39,50,50c0,26.43-20.52,48.08-46.5,49.87v78.63h-85v-78.71c-25.5-2.271-45.5-23.7-45.5-49.79c0-27.61,22.39-50,50-50
	C1347.49,621,1361.33,628.05,1370.5,639.11c-7.18,8.658-11.5,19.77-11.5,31.89c0,0.17,0,0.33,0.01,0.5"/>
<g>
	<path fill="none" stroke="#000000" stroke-miterlimit="10" d="M912,693.38c9.12-12.14,23.64-20.195,40-20.195
		c27.61,0,50,22.269,50,49.879c0,27.439-22.12,49.668-49.5,49.928V933v79.51c27.38,0.261,49.5,22.55,49.5,49.99
		c0,27.61-22.39,50-50,50c-16.36,0-30.88-7.86-40-20.01c4.71-6.271,7.98-13.57,9.32-21.7"/>
	<path fill="none" stroke="#000000" stroke-miterlimit="10" d="M912,1092.62c-9.12,12.14-23.64,19.945-40,19.945
		c-27.61,0-50-22.394-50-50.004c0-27.439,22.12-49.793,49.5-50.053V933V772.99C844.12,772.729,822,750.44,822,723
		c0-27.61,22.39-50,50-50c16.36,0,30.88,7.86,40,20.01c-4.71,6.271-7.98,14.07-9.32,22.2"/>
</g>
<g>
	<path fill="none" stroke="#000000" stroke-miterlimit="10" d="M798,1062.5c0,27.61-22.39,50-50,50c-16.36,0-30.88-7.86-40-20.01
		c-9.12,12.14-23.64,20.08-40,20.08c-27.61,0-50-22.4-50-50.012c0-27.438,22.12-49.79,49.5-50.05V772.99
		C640.12,772.729,618,750.44,618,723c0-27.61,22.39-50,50-50c16.36,0,30.88,7.86,40,20.01c9.12-12.14,23.64-19.83,40-19.83
		c27.61,0,50,22.271,50,49.88c0,27.44-22.12,49.672-49.5,49.932v239.52C775.88,1012.771,798,1035.06,798,1062.5z"/>
	<path fill="none" stroke="#000000" stroke-miterlimit="10" d="M708,1092.49c4.71-6.271,7.98-13.57,9.32-21.7"/>
	<path fill="none" stroke="#000000" stroke-miterlimit="10" d="M698.68,715.21c1.34-8.13,4.61-15.93,9.32-22.2"/>
</g>
<g>
	<g>
		<path fill="none" stroke="#000000" stroke-miterlimit="10" d="M141.787,1001.998c7.764-1.104,15.239-3.953,21.935-8.754"/>
		<path fill="none" stroke="#000000" stroke-miterlimit="10" d="M401.975,728.63c6.695-4.801,14.523-8.004,22.288-9.106"/>
	</g>
	<g>
		<path fill="none" stroke="#000000" stroke-miterlimit="10" d="M466.65,987.86c-11.57,11.568-27.4,16.278-42.44,14.14
			c2.14,15.03-2.51,30.91-14.08,42.479c-19.53,19.521-51.2,19.521-70.72-0.011c-19.4-19.398-19.57-50.85-0.392-70.39L283,918.06
			l-56.02,56.021c19.18,19.54,19.06,50.95-0.351,70.35c-19.52,19.53-51.18,19.53-70.71,0c-11.57-11.568-16.27-27.39-14.13-42.43
			c-15.04,2.13-30.92-2.52-42.49-14.09c-19.52-19.521-19.51-51.19,0.01-70.72c19.4-19.4,50.85-19.562,70.39-0.382l56.03-56.02
			l-56.08-56.08c-19.541,19.18-50.94,19.061-70.351-0.34c-19.52-19.53-19.52-51.19,0-70.71c11.57-11.57,27.4-16.28,42.44-14.142
			c-2.14-15.028,2.69-30.729,14.26-42.3c19.52-19.528,51.1-19.608,70.62-0.09c19.41,19.41,19.49,50.771,0.31,70.312L283,803.51
			l56.07-56.068c-19.182-19.54-19.062-50.95,0.35-70.352c19.521-19.52,51.18-19.52,70.71,0c11.57,11.57,16.271,27.392,14.13,42.431
			c15.03-2.131,30.74,2.699,42.312,14.271c19.52,19.521,19.608,51.1,0.08,70.62c-19.4,19.398-50.762,19.479-70.302,0.3
			l-56.068,56.08l56.02,56.021c19.54-19.181,50.94-19.061,70.352,0.341C486.17,936.68,486.17,968.34,466.65,987.86z"/>
		<path fill="none" stroke="#000000" stroke-miterlimit="10" d="M424.213,1001.998c-1.104-7.764-3.953-15.238-8.754-21.935"/>
		<path fill="none" stroke="#000000" stroke-miterlimit="10" d="M150.845,741.811c-4.801-6.694-8.004-14.522-9.107-22.288"/>
	</g>
</g>
<g>
	<g>
		<path fill="none" stroke="#000000" stroke-width="20" stroke-miterlimit="10" d="M-491.798,407.826
			c8.677-1.233,17.03-4.419,24.515-9.784"/>
		<path fill="none" stroke="#000000" stroke-width="20" stroke-miterlimit="10" d="M-201.002,102.297
			c7.483-5.365,16.232-8.945,24.911-10.178"/>
	</g>
	<g>
		<path fill="none" stroke="#000000" stroke-width="20" stroke-miterlimit="10" d="M-128.717,392.024
			c-12.933,12.931-30.624,18.193-47.435,15.804c2.393,16.798-2.805,34.547-15.735,47.479c-21.828,21.815-57.225,21.815-79.04-0.013
			c-21.683-21.682-21.872-56.832-0.438-78.67l-62.608-62.611l-62.609,62.611c21.436,21.838,21.302,56.943-0.393,78.626
			c-21.815,21.827-57.2,21.827-79.028,0c-12.932-12.931-18.185-30.612-15.793-47.422c-16.81,2.38-34.558-2.815-47.488-15.747
			c-21.815-21.816-21.805-57.213,0.013-79.04c21.683-21.683,56.831-21.86,78.671-0.425l62.621-62.611l-62.678-62.677
			c-21.84,21.436-56.933,21.301-78.627-0.38c-21.815-21.828-21.815-57.212,0-79.028c12.932-12.932,30.624-18.196,47.435-15.804
			c-2.394-16.798,3.006-34.345,15.938-47.276c21.815-21.827,57.11-21.917,78.928-0.101c21.693,21.694,21.783,56.744,0.348,78.582
			l62.666,62.666l62.666-62.666c-21.437-21.838-21.303-56.944,0.391-78.626c21.817-21.816,57.201-21.816,79.029,0
			c12.932,12.931,18.185,30.613,15.792,47.421c16.799-2.381,34.356,3.018,47.288,15.949c21.814,21.816,21.917,57.111,0.09,78.929
			c-21.684,21.681-56.732,21.771-78.571,0.335l-62.666,62.677l62.61,62.611c21.839-21.437,56.933-21.304,78.627,0.381
			C-106.901,334.822-106.901,370.207-128.717,392.024z"/>
		<path fill="none" stroke="#000000" stroke-width="20" stroke-miterlimit="10" d="M-176.147,407.826
			c-1.232-8.677-4.418-17.031-9.783-24.515"/>
		<path fill="none" stroke="#000000" stroke-width="20" stroke-miterlimit="10" d="M-481.675,117.028
			c-5.366-7.483-8.946-16.232-10.18-24.91"/>
	</g>
</g>
<image overflow="visible" opacity="0.5" width="612" height="612" xlink:href="76981C92.jpg"  transform="matrix(1.768 0 0 1.768 -1810 409)">
</image>
<path fill="none" stroke="#000000" stroke-miterlimit="10" d="M-1175.5,731c0,8.23-0.79,16.28-2.31,24.07
	c-1.46,7.56-3.61,14.88-6.37,21.89c-8.35,21.2-22.3,39.57-40.03,53.31c-21.22,16.44-47.86,26.23-76.79,26.23
	c-18.42,0-35.92-3.97-51.68-11.1c-36.49-16.511-63.67-49.971-71.51-90.33c-1.52-7.79-2.31-15.84-2.31-24.07
	c0-15.17,2.69-29.71,7.63-43.17c17.59-48.04,63.73-82.33,117.87-82.33c59.92,0,110.04,42,122.52,98.17
	c0.13,0.61,0.26,1.22,0.39,1.84C-1176.39,713.74-1175.5,722.26-1175.5,731z"/>
<path fill="none" stroke="#000000" stroke-miterlimit="10" d="M-1175.5,731c0,8.23-0.79,16.28-2.31,24.07
	c-1.46,7.56-3.61,14.88-6.37,21.89c-8.35,21.2-22.3,39.57-40.03,53.31c-24.76-9.68-42.29-33.77-42.29-61.949
	c0-36.021,28.64-65.351,64.39-66.46c0.7-0.03,1.4-0.04,2.11-0.04c7.19,0,14.11,1.14,20.59,3.25h0.01c0.44,0.14,0.87,0.29,1.31,0.439
	C-1176.39,713.74-1175.5,722.26-1175.5,731z"/>
<path fill="none" stroke="#000000" stroke-miterlimit="10" d="M-1163.7,1005c0,11.77-9.54,21.31-21.31,21.31
	c-11.77,0-21.31-9.54-21.31-21.31H-1163.7z"/>
<path fill="none" stroke="#000000" stroke-miterlimit="10" d="M-1352.04,1005c0,11.77-9.54,21.31-21.31,21.31
	c-8.57,0-15.96-5.06-19.34-12.359c-1.27-2.72-1.97-5.75-1.97-8.95H-1352.04z"/>
<path fill="none" stroke="#000000" stroke-miterlimit="10" d="M-1387.41,1005c-1.7,3.02-3.46,6.01-5.28,8.95
	c-48.8,79.29-136.38,132.149-236.32,132.149c-153.16,0-277.31-124.159-277.31-277.31c0-153.16,124.15-277.32,277.31-277.32
	c46.69,0,90.69,11.54,129.3,31.931c30.85,16.279,58.25,38.22,80.84,64.43c5.32,6.17,10.37,12.58,15.13,19.21c0,0,0,0,0,0.01
	c28.48,39.58,46.78,86.97,51.06,138.351c-36.49-16.511-63.67-49.971-71.51-90.33c-1.52,7.779-2.31,15.83-2.31,24.06
	c0,26.97,8.51,51.95,22.99,72.41V1005H-1387.41z"/>
<path fill="none" stroke="#000000" stroke-miterlimit="10" d="M-1076.11,808.02c-16.79,44.87-47.13,83.131-86.03,109.811
	l35.31-98.58c3.34,0.46,6.76,0.7,10.23,0.7C-1101.67,819.95-1087.77,815.57-1076.11,808.02z"/>
<path fill="none" stroke="#000000" stroke-miterlimit="10" d="M-1061.5,726.94c0,3.71-0.09,7.399-0.26,11.06h-79.04
	c-7.74-15.09-21.09-26.83-37.29-32.49c1.7,8.23,2.59,16.75,2.59,25.49c0,8.23-0.79,16.28-2.31,24.07
	c-1.46,7.56-3.61,14.88-6.37,21.89c-8.35,21.2-22.3,39.57-40.03,53.31c-21.22,16.44-47.86,26.23-76.79,26.23
	c-18.42,0-35.92-3.97-51.68-11.1c-36.49-16.511-63.67-49.971-71.51-90.33c-1.52,7.779-2.31,15.83-2.31,24.06
	c0,26.97,8.51,51.95,22.99,72.41v78.55c-71.87-39.24-120.61-115.5-120.61-203.149c0-37.221,8.79-72.391,24.41-103.54
	c37.99-75.771,116.36-127.771,206.9-127.771c116.01,0,212.06,85.39,228.74,196.75v0.01C-1062.37,703.66-1061.5,715.2-1061.5,726.94z
	"/>
<path fill="none" stroke="#000000" stroke-miterlimit="10" d="M-1177.81,755.07c-1.46,7.56-3.61,14.88-6.37,21.89
	c-8.35,21.2-22.3,39.57-40.03,53.31c-21.22,16.44-47.86,26.23-76.79,26.23c-18.42,0-35.92-3.97-51.68-11.1
	c-36.49-16.511-63.67-49.971-71.51-90.33c3.41-17.601,10.51-33.88,20.45-48.021c0-0.01,0-0.01,0-0.01
	c22.71-32.3,60.26-53.41,102.74-53.41c40.17,0,75.92,18.87,98.89,48.23c5.4,6.899,10.09,14.37,13.96,22.319
	C-1183.43,733.84-1179.92,744.21-1177.81,755.07z"/>
<path fill="none" stroke="#000000" stroke-miterlimit="10" d="M-1042,738v7.35c0-2.479-0.12-4.93-0.36-7.35H-1042z"/>
<path fill="none" stroke="#000000" stroke-miterlimit="10" d="M-1043.16,758.5c0.76-4.27,1.16-8.66,1.16-13.15v13.15H-1043.16z"/>
<path fill="none" stroke="#000000" stroke-miterlimit="10" d="M-1042.36,738h-98.44c-7.74-15.09-21.09-26.83-37.29-32.49
	c1.7,8.23,2.59,16.75,2.59,25.49c0,8.23-0.79,16.28-2.31,24.07c-1.46,7.56-3.61,14.88-6.37,21.89c-4.51-9.59-7.02-20.31-7.02-31.61
	c0-7.35,1.06-14.46,3.05-21.17c2.01-6.83,4.98-13.25,8.74-19.109h0.01c0.3-0.471,0.61-0.94,0.92-1.4
	c13.4-19.86,36.12-32.92,61.88-32.92c20.49,0,39.05,8.26,52.53,21.63v0.01C-1052.07,704.28-1044.1,720.23-1042.36,738z"/>
<line fill="none" stroke="#000000" stroke-miterlimit="10" x1="-1061.5" y1="1005" x2="-1163.7" y2="1005"/>
<line fill="none" stroke="#000000" stroke-miterlimit="10" x1="-1403.51" y1="1005" x2="-1431.5" y2="1005"/>
<line fill="none" stroke="#000000" stroke-miterlimit="10" x1="-1221.4" y1="1005" x2="-1352.04" y2="1005"/>
<path fill="none" stroke="#000000" stroke-miterlimit="10" d="M-1042,745.35c0,4.49-0.4,8.881-1.16,13.15
	c-3.68,20.73-15.93,38.49-32.95,49.51v0.01c-11.66,7.551-25.56,11.931-40.49,11.931c-3.47,0-6.89-0.24-10.23-0.7l-35.31,98.58
	l-23.6,65.88c0.24-0.02,0.49-0.02,0.73-0.02c11.77,0,21.31,9.54,21.31,21.31h-57.7v-57.98c-22.49,7.29-46.49,11.23-71.41,11.23
	c-24.47,0-48.05-3.8-70.19-10.85c-3.71,12.58-8.29,24.79-13.68,36.55c1.09-0.17,2.2-0.26,3.33-0.26c11.77,0,21.31,9.54,21.31,21.31
	h-51.47V851.54c-14.48-20.46-22.99-45.44-22.99-72.41c0-8.229,0.79-16.28,2.31-24.06c7.84,40.359,35.02,73.819,71.51,90.33
	c15.76,7.13,33.26,11.1,51.68,11.1c28.93,0,55.57-9.79,76.79-26.23c17.73-13.739,31.68-32.109,40.03-53.31
	c2.76-7.01,4.91-14.33,6.37-21.89c1.52-7.79,2.31-15.84,2.31-24.07c0-8.74-0.89-17.26-2.59-25.49c16.2,5.66,29.55,17.4,37.29,32.49
	h98.44C-1042.12,740.42-1042,742.87-1042,745.35z"/>
<line fill="none" stroke="#000000" stroke-miterlimit="10" x1="-1124.17" y1="811.83" x2="-1126.83" y2="819.25"/>
<line fill="none" stroke="#000000" stroke-miterlimit="10" x1="-1185.74" y1="983.71" x2="-1186.5" y2="985.83"/>
<g>
	<path fill="none" stroke="#000000" stroke-miterlimit="10" d="M-1220.77,1342.967l77.52,37.59l-18.89,52.73l-23.6,65.88
		c0.24-0.021,0.49-0.021,0.73-0.021c11.77,0,21.31,9.54,21.31,21.311h-57.7v-57.98c-22.49,7.29-46.49,11.23-71.41,11.23
		c-24.47,0-48.05-3.8-70.19-10.851c-3.71,12.58-8.29,24.79-13.68,36.551c1.09-0.17,2.2-0.261,3.33-0.261
		c11.77,0,21.31,9.54,21.31,21.311h-51.47v-153.46c-14.48-20.46-22.99-45.44-22.99-72.41c0-8.23,0.79-16.28,2.31-24.06
		c7.84,40.359,35.02,73.819,71.51,90.329c15.76,7.131,33.26,11.101,51.68,11.101c28.93,0,55.57-9.79,76.79-26.23
		C-1223.05,1344.827-1221.9,1343.907-1220.77,1342.967z"/>
	<path fill="none" stroke="#000000" stroke-miterlimit="10" d="M-1042,1260.807c0,4.49-0.4,8.88-1.16,13.15
		c-3.68,20.729-15.93,38.49-32.95,49.51v0.01c-11.66,7.551-25.56,11.931-40.49,11.931c-3.47,0-6.89-0.24-10.23-0.7l-8.44,23.55
		l-68.06-33c7.95-9.83,14.44-20.89,19.15-32.84c2.76-7.01,4.91-14.33,6.37-21.89c1.52-7.79,2.31-15.841,2.31-24.07
		c0-8.74-0.89-17.26-2.59-25.49c16.2,5.66,29.55,17.4,37.29,32.49h98.44C-1042.12,1255.877-1042,1258.327-1042,1260.807z"/>
	<path fill="none" stroke="#000000" stroke-miterlimit="10" d="M-1135.27,1358.257l-7.98,22.3l-77.52-37.59
		c6.38-5.32,12.23-11.25,17.44-17.71L-1135.27,1358.257z"/>
</g>
<g>
	<path fill="none" stroke="#000000" stroke-width="10" stroke-miterlimit="10" d="M-825.809,1380.221l77.52,37.59l-18.89,52.73
		l-23.6,65.88c0.24-0.021,0.49-0.021,0.73-0.021c11.77,0,21.31,9.54,21.31,21.311h-57.7v-57.98c-22.49,7.29-46.49,11.23-71.41,11.23
		c-24.47,0-48.05-3.8-70.19-10.851c-3.71,12.58-8.29,24.79-13.68,36.551c1.09-0.17,2.2-0.261,3.33-0.261
		c11.77,0,21.31,9.54,21.31,21.311h-51.47v-153.46c-14.48-20.46-22.99-45.44-22.99-72.41c0-8.23,0.79-16.28,2.31-24.06
		c7.84,40.359,35.02,73.819,71.51,90.329c15.76,7.131,33.26,11.101,51.68,11.101c28.93,0,55.57-9.79,76.79-26.23
		C-828.088,1382.081-826.938,1381.161-825.809,1380.221z"/>
	<path fill="none" stroke="#000000" stroke-width="10" stroke-miterlimit="10" d="M-647.039,1298.061c0,4.49-0.4,8.88-1.16,13.15
		c-3.68,20.729-15.93,38.49-32.95,49.51v0.01c-11.66,7.551-25.56,11.931-40.49,11.931c-3.47,0-6.89-0.24-10.23-0.7l-8.44,23.55
		l-68.06-33c7.95-9.83,14.44-20.89,19.15-32.84c2.76-7.01,4.91-14.33,6.37-21.89c1.52-7.79,2.31-15.841,2.31-24.07
		c0-8.74-0.89-17.26-2.59-25.49c16.2,5.66,29.55,17.4,37.29,32.49h98.44C-647.158,1293.131-647.039,1295.581-647.039,1298.061z"/>
	<path fill="none" stroke="#000000" stroke-width="10" stroke-miterlimit="10" d="M-740.309,1395.511l-7.98,22.3l-77.52-37.59
		c6.38-5.32,12.23-11.25,17.44-17.71L-740.309,1395.511z"/>
</g>
<g>
	<path fill="none" stroke="#000000" stroke-width="10" stroke-miterlimit="10" d="M-318.978,749.08l86.391,41.892l-21.051,58.765
		l-26.301,73.418c0.267-0.022,0.546-0.022,0.813-0.022c13.117,0,23.749,10.632,23.749,23.749h-64.303v-64.615
		c-25.063,8.124-51.81,12.516-79.582,12.516c-27.27,0-53.548-4.234-78.222-12.092c-4.135,14.02-9.239,27.626-15.245,40.733
		c1.214-0.189,2.451-0.291,3.711-0.291c13.117,0,23.749,10.632,23.749,23.749h-57.36V775.86
		c-16.137-22.802-25.621-50.641-25.621-80.696c0-9.173,0.88-18.144,2.574-26.813c8.738,44.979,39.028,82.267,79.694,100.666
		c17.563,7.947,37.065,12.371,57.593,12.371c32.241,0,61.93-10.91,85.578-29.232C-321.518,751.153-320.237,750.128-318.978,749.08z"
		/>
	<path fill="none" stroke="#000000" stroke-width="10" stroke-miterlimit="10" d="M-119.75,657.518
		c0,5.004-0.446,9.896-1.292,14.655c-4.101,23.102-17.753,42.896-36.721,55.176v0.011c-12.995,8.415-28.485,13.296-45.123,13.296
		c-3.868,0-7.679-0.268-11.401-0.78l-9.406,26.244l-75.848-36.775c8.859-10.955,16.092-23.28,21.341-36.599
		c3.075-7.812,5.471-15.97,7.098-24.395c1.694-8.682,2.575-17.653,2.575-26.824c0-9.74-0.992-19.235-2.886-28.407
		c18.054,6.308,32.931,19.392,41.557,36.208h109.705C-119.883,652.024-119.75,654.755-119.75,657.518z"/>
	<path fill="none" stroke="#000000" stroke-width="10" stroke-miterlimit="10" d="M-223.693,766.119l-8.893,24.853l-86.391-41.892
		c7.11-5.93,13.629-12.537,19.437-19.736L-223.693,766.119z"/>
</g>
<path fill="#CC3366" stroke="#CC3366" stroke-width="15" stroke-miterlimit="10" d="M-318.978,1266.554l86.391,41.892
	l-21.051,58.765l-26.301,73.418c0.267-0.022,0.546-0.022,0.813-0.022c13.117,0,23.749,10.632,23.749,23.749h-64.303v-64.615
	c-25.063,8.124-51.81,12.516-79.582,12.516c-27.27,0-53.548-4.234-78.222-12.092c-4.135,14.02-9.239,27.626-15.245,40.733
	c1.214-0.189,2.451-0.291,3.711-0.291c13.117,0,23.749,10.632,23.749,23.749h-57.36v-171.021
	c-16.137-22.802-25.621-50.641-25.621-80.696c0-9.173,0.88-18.144,2.574-26.813c8.738,44.979,39.028,82.267,79.694,100.666
	c17.563,7.947,37.065,12.371,57.593,12.371c32.241,0,61.93-10.91,85.578-29.232
	C-321.518,1268.627-320.237,1267.602-318.978,1266.554z"/>
<path fill="#CC3366" stroke="#CC3366" stroke-width="15" stroke-miterlimit="10" d="M-119.75,1174.991
	c0,5.004-0.446,9.896-1.292,14.655c-4.101,23.102-17.753,42.896-36.721,55.176v0.011c-12.995,8.415-28.485,13.296-45.123,13.296
	c-3.868,0-7.679-0.268-11.401-0.78l-9.406,26.244l-75.848-36.775c8.859-10.955,16.092-23.28,21.341-36.599
	c3.075-7.812,5.471-15.97,7.098-24.395c1.694-8.682,2.575-17.653,2.575-26.824c0-9.74-0.992-19.235-2.886-28.407
	c18.054,6.308,32.931,19.392,41.557,36.208h109.705C-119.883,1169.498-119.75,1172.229-119.75,1174.991z"/>
<path fill="none" d="M-223.693,1283.593l-8.893,24.853l-86.391-41.892c7.11-5.93,13.629-12.537,19.437-19.736L-223.693,1283.593z"/>
</svg>
