<?xml version="1.0" encoding="utf-8"?>
<!-- Generator: Adobe Illustrator 16.0.2, SVG Export Plug-In . SVG Version: 6.00 Build 0)  -->
<!DOCTYPE svg PUBLIC "-//W3C//DTD SVG 1.1//EN" "http://www.w3.org/Graphics/SVG/1.1/DTD/svg11.dtd">
<svg version="1.1" id="Layer_1" xmlns="http://www.w3.org/2000/svg" xmlns:xlink="http://www.w3.org/1999/xlink" x="0px" y="0px"
	 width="500px" height="500px" viewBox="0 0 500 500" enable-background="new 0 0 500 500" xml:space="preserve">
<g>
	<path fill="none" stroke="#000000" stroke-width="20" stroke-miterlimit="10" d="M339.136,462
		c28.644,0,51.861-24.282,51.861-52.845c0-28.561-23.218-52.279-51.861-52.279c-43.758,0-43.758-63.313-43.758-63.313l0,0
		c0-24.99-20.316-45.392-45.378-45.392l0,0c-25.062,0-45.378,20.191-45.378,45.18l0,0c0,0,0,62.995-43.758,62.995
		c-28.642,0-51.861,24.266-51.861,52.827c0,28.563,23.219,52.827,51.861,52.827H339.136z"/>
	
		<ellipse fill="none" stroke="#000000" stroke-width="20" stroke-miterlimit="10" cx="196.518" cy="155.691" rx="49.43" ry="69.688"/>
	
		<ellipse fill="none" stroke="#000000" stroke-width="20" stroke-miterlimit="10" cx="303.482" cy="155.691" rx="49.43" ry="69.688"/>
	
		<ellipse fill="none" stroke="#000000" stroke-width="20" stroke-miterlimit="10" cx="99.279" cy="252.931" rx="49.43" ry="69.688"/>
	
		<ellipse fill="none" stroke="#000000" stroke-width="20" stroke-miterlimit="10" cx="400.721" cy="252.931" rx="49.43" ry="69.688"/>
	<line fill="none" stroke="#000000" stroke-width="20" stroke-miterlimit="10" x1="197" y1="86" x2="197" y2="39"/>
	<line fill="none" stroke="#000000" stroke-width="20" stroke-miterlimit="10" x1="303" y1="86" x2="303" y2="39"/>
	<line fill="none" stroke="#000000" stroke-width="20" stroke-miterlimit="10" x1="401" y1="185" x2="401" y2="138"/>
	<line fill="none" stroke="#000000" stroke-width="20" stroke-miterlimit="10" x1="99" y1="185" x2="99" y2="138"/>
</g>
</svg>
