<?xml version="1.0" encoding="utf-8"?>
<!-- Generator: Adobe Illustrator 16.0.2, SVG Export Plug-In . SVG Version: 6.00 Build 0)  -->
<!DOCTYPE svg PUBLIC "-//W3C//DTD SVG 1.1//EN" "http://www.w3.org/Graphics/SVG/1.1/DTD/svg11.dtd">
<svg version="1.1" id="Layer_1" xmlns="http://www.w3.org/2000/svg" xmlns:xlink="http://www.w3.org/1999/xlink" x="0px" y="0px"
	 width="500px" height="500px" viewBox="0 0 500 500" enable-background="new 0 0 500 500" xml:space="preserve">
<circle cx="298.488" cy="220.034" r="20.248"/>
<path fill="none" stroke="#000000" stroke-width="15" stroke-miterlimit="10" d="M285.158,325.37l-35.263,35.263l-35.263-35.263
	c-9.735-9.736-9.735-25.529,0-35.264c9.735-9.735,25.528-9.735,35.263,0c9.734-9.735,25.527-9.735,35.263,0
	C294.893,299.841,294.893,315.634,285.158,325.37z"/>
<circle cx="201.301" cy="220.034" r="20.248"/>
<path fill="none" stroke="#000000" stroke-width="15" stroke-miterlimit="10" d="M285.158,325.37l-35.263,35.263l-35.263-35.263
	c-9.735-9.736-9.735-25.529,0-35.264c9.735-9.735,25.528-9.735,35.263,0c9.734-9.735,25.527-9.735,35.263,0
	C294.893,299.841,294.893,315.634,285.158,325.37z"/>
<path fill="none" stroke="#000000" stroke-width="15" stroke-miterlimit="10" d="M411.389,248.85
	c-15.227-62.865-50.894-133.537-96.653-170.695c-19.973-16.215-41.871-26.047-64.84-26.047c-22.937,0-44.804,9.8-64.76,25.982
	c-45.808,37.142-81.508,107.895-96.735,170.792c-5.232,21.56-8.05,42.197-8.05,60.241c0,90.385,70.704,135.563,159.826,138.607
	c3.224,0.112,6.463,0.161,9.719,0.161c93.641,0,169.544-45.129,169.544-138.769C419.439,291.062,416.622,270.425,411.389,248.85z"/>
<path fill="none" stroke="#000000" stroke-width="15" stroke-miterlimit="10" d="M285.158,325.37l-35.263,35.263l-35.263-35.263
	c-9.735-9.736-9.735-25.529,0-35.264c9.735-9.735,25.528-9.735,35.263,0c9.734-9.735,25.527-9.735,35.263,0
	C294.893,299.841,294.893,315.634,285.158,325.37z"/>
<path fill="none" stroke="#000000" stroke-width="15" stroke-miterlimit="10" d="M185.135,78.09
	c-45.808,37.142-81.508,107.895-96.735,170.792c-17.526,2.138-33.011-1.669-43.475-12.133
	c-25.172-25.188-11.792-79.386,29.901-121.08C111.289,79.208,157.307,64.403,185.135,78.09z"/>
<path fill="none" stroke="#000000" stroke-width="15" stroke-miterlimit="10" d="M455.074,236.75
	c-10.511,10.513-26.078,14.303-43.686,12.101c-15.227-62.865-50.894-133.537-96.653-170.695
	c27.812-13.801,73.911,0.988,110.438,37.514C466.867,157.363,480.246,211.562,455.074,236.75z"/>
<line fill="none" stroke="#000000" stroke-width="15" stroke-miterlimit="10" x1="249.5" y1="360" x2="249.5" y2="448"/>
</svg>
