<?xml version="1.0" encoding="utf-8"?>
<!-- Generator: Adobe Illustrator 16.0.2, SVG Export Plug-In . SVG Version: 6.00 Build 0)  -->
<!DOCTYPE svg PUBLIC "-//W3C//DTD SVG 1.1//EN" "http://www.w3.org/Graphics/SVG/1.1/DTD/svg11.dtd">
<svg version="1.1" id="Layer_1" xmlns="http://www.w3.org/2000/svg" xmlns:xlink="http://www.w3.org/1999/xlink" x="0px" y="0px"
	 width="500px" height="500px" viewBox="0 0 500 500" enable-background="new 0 0 500 500" xml:space="preserve">
<path fill="#CC3366" stroke="#CC3366" stroke-width="15" stroke-miterlimit="10" d="M265.021,219.079l86.392,41.893l-21.052,58.765
	l-26.301,73.418c0.268-0.022,0.547-0.022,0.813-0.022c13.117,0,23.749,10.633,23.749,23.75H264.32v-64.615
	c-25.063,8.124-51.811,12.516-79.583,12.516c-27.27,0-53.548-4.234-78.222-12.092c-4.135,14.02-9.239,27.626-15.245,40.732
	c1.214-0.188,2.451-0.291,3.711-0.291c13.117,0,23.749,10.633,23.749,23.75h-57.36V245.86
	C45.234,223.059,35.75,195.22,35.75,165.164c0-9.173,0.88-18.144,2.574-26.813c8.738,44.979,39.028,82.267,79.694,100.666
	c17.563,7.946,37.065,12.371,57.593,12.371c32.241,0,61.93-10.91,85.579-29.232C262.482,221.152,263.764,220.128,265.021,219.079z"
	/>
<path fill="#CC3366" stroke="#CC3366" stroke-width="15" stroke-miterlimit="10" d="M464.25,127.517
	c0,5.004-0.445,9.896-1.292,14.654c-4.101,23.103-17.753,42.896-36.722,55.177v0.011c-12.994,8.415-28.484,13.296-45.123,13.296
	c-3.867,0-7.678-0.268-11.4-0.78l-9.406,26.244l-75.848-36.774c8.859-10.955,16.092-23.28,21.341-36.6
	c3.075-7.812,5.472-15.97,7.099-24.395c1.693-8.683,2.574-17.653,2.574-26.824c0-9.74-0.992-19.235-2.886-28.407
	c18.054,6.309,32.931,19.393,41.558,36.208H463.85C464.117,122.023,464.25,124.755,464.25,127.517z"/>
<path fill="none" d="M360.307,236.118l-8.893,24.854l-86.391-41.893c7.109-5.93,13.629-12.537,19.437-19.735L360.307,236.118z"/>
</svg>
